<?xml version="1.0" standalone="yes"?>
<svg xmlns="http://www.w3.org/2000/svg" width="500" height="500">
<path style="fill:#252525; stroke:none;" d="M204.015 145.742C191.392 150.72 200.312 171.131 212.996 165.99C226.845 160.377 217.964 140.242 204.015 145.742M286.015 146.742C273.122 151.814 281.309 171.859 293.996 167.103C307.735 161.952 299.776 141.33 286.015 146.742z"/>
<path style="fill:#dc1e28; stroke:none;" d="M168 158L169 159L168 158z"/>
<path style="fill:#252525; stroke:none;" d="M169 158C168.781 172.674 192.946 174.008 199.142 184.019C202.347 189.197 200.903 196.381 199.916 202C197.313 216.82 191.779 231.096 186.2 245C183.532 251.648 181.824 258.762 175 262L175 263C186.797 267.419 199.713 266 212 267.17C237.176 269.566 263.802 268.815 289 267.09C300.919 266.273 313.609 267.267 325 263L325 262C321.343 260.63 315.465 260.696 312.854 257.566C309.396 253.422 308.471 245.135 307.116 240C303.065 224.647 297.05 205.898 300 190C284.786 195.599 286.67 170.704 295 180C307.979 175.697 327.205 176.084 332 159C313.779 164.249 300.026 173.319 280 170.711C273.106 169.812 266.144 167.433 260 164.215C256.745 162.511 252.851 158.625 249 158.802C241.096 159.165 231.093 166.514 223 168.525C203.229 173.437 186.114 167.49 169 158M230 257L218 192C210.484 195.205 201.45 185.993 203.333 178.045C204.852 171.636 211.451 174.04 214 178C219.775 174.382 221.525 176.789 227.424 176.475C231.88 176.238 237.602 171.931 241 169.319C243.619 167.307 247.256 162.417 251 163.346C255.297 164.412 259.449 170.113 263 172.711C267.964 176.341 276.687 178.193 280.262 183.133C288.702 194.8 277.839 220.292 273.424 232C271.083 238.206 268.383 252.247 262.606 255.972C255.799 260.361 238.037 257 230 257z"/>
<path style="fill:#dc1e28; stroke:none;" d="M214 178C211.451 174.04 204.852 171.637 203.333 178.045C202.697 180.733 203.635 183.701 205.009 185.999C206.072 187.775 207.469 189.424 209.043 190.768C222.789 202.494 234.046 165.439 214 178M295 180C292.823 176.484 287.664 175.696 287.203 181.045C287.021 183.155 287.784 185.236 288.894 186.995C298.958 202.954 313.071 171.079 295 180z"/>
<path style="fill:#252525; stroke:none;" d="M250.015 177.677C241.075 179.413 244.135 192.706 252.981 190.667C261.025 188.813 258.246 176.08 250.015 177.677M226 186C230.055 194.691 240.376 195.095 244.832 202.221C252.465 214.428 236.941 239.422 233 251C242.423 245.844 247.585 230.318 252 221L264 251L265 251L257 207C253.747 206.861 245.039 201.514 250.362 197.975C253.173 196.105 258.783 197.702 262 197.516C268.612 197.135 275.29 191.762 278 186C256.834 192.095 246.971 195.789 226 186z"/>
<path style="fill:#dc1e28; stroke:none;" d="M250.322 197.222C244.996 200.014 251.802 209.012 256.906 206.623C266.716 202.033 257.566 193.424 250.322 197.222z"/>
<path style="fill:#252525; stroke:none;" d="M210 213L227 257L183 260L198.822 235L210 213M291 214C298.205 225.396 306.639 245.753 309 259L267 257L291 214z"/>
<path style="fill:#dc1e28; stroke:none;" d="M214 267L215 268L214 267z"/>
<path style="fill:#252525; stroke:none;" d="M167 300L167 327L174 327L174 316L185 316L185 327L192 327L192 300L185 300L185 311L174 311L174 300L167 300M197 300L197 327L219 327L219 322C212.845 322 205.223 323.672 204 316L217 316L217 311C201.194 311 205.722 305 219 305L219 300L197 300M221 327L235.997 322.039L251 327C249.011 321.156 244.156 302.101 237.79 300.323C229.254 297.937 222.791 320.736 221 327M253 300L253 327L272 327L272 321L260 321L260 300L253 300M273 300L273 305L281 305L281 327L288 327L288 305L296 305L296 300L273 300M299 300L299 327L306 327L306 316L317 316L317 327L324 327L324 300L317 300L317 311L306 311L306 300L299 300M237 308L239 317L232 317L235 308L237 308M146 354L146 381L168 381L168 376L153 376L153 370L166 370L166 365L153 365L153 359L167 359L167 354L146 354M187 354L187 381L194 381L194 373C202.075 372.999 217.95 364.873 205.772 356.009C200.944 352.496 192.636 354 187 354M221 354L210 381L225.003 376.039L240 381C237.164 370.629 233.194 354.043 221 354M241 354L241 359C252.338 359.369 249 372.618 249 381L256 381L256 359L264 359L264 354L241 354M267 354L267 381L274 381L274 354L267 354M279 354L279 381L301 381L301 376L286 376L286 370L299 370L299 365L286 365L286 359L300 359L300 354L279 354M305 354L305 381L312 381L312 365L313 365C316.072 372.267 321.566 380.726 330 381L330 354L324 354L324 370C318.163 363.156 314.965 354.118 305 354M333 354L333 359L341 359L341 381L348 381C348 372.618 344.662 359.369 356 359L356 354L333 354M194 368L194 359C204.421 359.252 204.473 367.876 194 368M225 362L229 371L221 371L225 362M172 367L172 371L182 371L182 367L172 367z"/>
<path style="fill:#dc1e28; stroke:none;" d="M321 367L322 368L321 367z"/>
<path style="fill:#252525; stroke:none;" d="M287.04 415.902C279.797 416.736 281.851 427.852 288.981 426.623C296.178 425.384 294.122 415.087 287.04 415.902M139 416L139 427C147.453 422.874 151.584 416 139 416M160 416L155 427C160.238 424.66 161.762 424.66 167 427L162 416L160 416z"/>
<path style="fill:#dc1e28; stroke:none;" d="M162 416L163 417L162 416z"/>
<path style="fill:#252525; stroke:none;" d="M174 416L174 417L177 417L177 427L179 427L179 417L183 417L174 416M191 416L191 427L193 427L193 416L191 416M202 416L202 427L211 427L211 426L204 425L204 422L210 422L210 420L204 420L204 417L210 417L202 416M220 416L220 427L221 427L221 420L229 427L229 416L228 416L228 423L220 416M237 416L237 417L241 417L241 427L243 427L243 417L247 417L237 416M265 416L265 427C273.453 422.874 277.584 416 265 416M303 416L303 427L304 427L304 424L312 427C309.881 420 312.219 416.109 303 416M319 416L319 417L323 417L323 427L325 427L325 417L329 417L319 416M340 416L335 427C340.238 424.66 341.762 424.66 347 427L342 416L340 416z"/>
<path style="fill:#dc1e28; stroke:none;" d="M342 416L343 417L342 416z"/>
<path style="fill:#252525; stroke:none;" d="M355 416L355 427L362 427L362 425L357 425L357 416L355 416M147 419L147 420L141 422L141 417L147 419M273 419L273 420L267 422L267 417L273 419M287.129 417.752C291.397 416.615 292.91 422.908 288.87 424.338C284.223 425.983 282.785 418.909 287.129 417.752z"/>
<path style="fill:#dc1e28; stroke:none;" d="M289 417L290 418L289 417z"/>
<path style="fill:#252525; stroke:none;" d="M306.278 417.747C308.708 416.967 310.346 420.411 307.722 421.253C305.292 422.033 303.654 418.589 306.278 417.747M162 419L163 423L159 423L160 419L162 419M342 419L343 423L339 423L340 419L342 419z"/>
</svg>
